<?xml version="1.0" standalone="no"?>
<!DOCTYPE svg PUBLIC "-//W3C//DTD SVG 20010904//EN"
 "http://www.w3.org/TR/2001/REC-SVG-20010904/DTD/svg10.dtd">
<svg version="1.0" xmlns="http://www.w3.org/2000/svg"
 width="416.000000pt" height="416.000000pt" viewBox="0 0 416.000000 416.000000"
 preserveAspectRatio="xMidYMid meet">
<metadata>
Created by potrace 1.14, written by Peter Selinger 2001-2017
</metadata>
<g transform="translate(0.000000,416.000000) scale(0.100000,-0.100000)"
fill="#000000" stroke="none">
<path d="M3834 4128 l1 -33 -62 1 c-66 0 -70 -4 -64 -53 1 -9 -17 -13 -62 -13
-68 0 -79 -7 -68 -45 5 -17 15 -20 66 -20 60 -1 60 -1 60 -30 l0 -30 -65 0
c-58 0 -65 2 -66 20 -1 11 -2 25 -3 30 0 6 -26 10 -57 9 -59 0 -75 -12 -67
-45 5 -17 -1 -19 -60 -19 -53 0 -65 -3 -69 -18 -10 -36 5 -48 57 -46 66 2 74
-2 72 -34 -2 -26 -5 -27 -64 -30 -49 -2 -62 -6 -66 -21 -8 -33 8 -44 64 -42
55 1 70 11 62 42 -5 17 1 19 61 19 l66 0 0 34 0 34 60 0 c68 -1 73 1 73 37 0
24 2 25 63 25 54 0 64 3 65 18 1 9 2 24 3 32 1 11 17 16 67 18 l67 3 -10 37
c-5 20 -10 42 -10 49 -1 7 -8 15 -15 17 -20 8 -7 25 15 19 13 -3 17 -13 16
-34 -2 -27 1 -29 32 -29 l34 0 0 65 0 65 -98 0 -99 0 1 -32z m76 -48 c0 -5 -2
-10 -4 -10 -3 0 -8 5 -11 10 -3 6 -1 10 4 10 6 0 11 -4 11 -10z m-334 -207 c5
-34 -29 -44 -112 -34 -13 1 -26 40 -18 53 3 5 33 8 66 6 54 -3 61 -5 64 -25z"/>
<path d="M3204 3832 c-17 -2 -20 -8 -16 -32 l4 -30 -66 0 c-68 0 -70 -1 -67
-46 2 -18 -3 -20 -51 -19 -71 1 -78 -2 -78 -36 l0 -29 -68 0 -67 0 1 -36 2
-36 -64 4 -64 4 0 -33 0 -33 60 0 c47 0 60 3 60 15 0 8 -1 17 -2 18 -2 2 3 11
10 20 9 11 29 16 61 15 59 0 72 -8 68 -39 -4 -22 -10 -24 -68 -29 -66 -5 -68
-7 -60 -57 0 -5 28 -6 61 -5 61 4 66 8 61 50 -1 8 17 12 64 12 64 0 65 0 66
28 1 15 1 30 0 35 0 4 28 7 63 7 63 0 65 1 68 28 3 26 6 27 64 30 56 3 62 5
66 27 7 34 -1 40 -52 40 -68 -1 -77 3 -75 33 1 26 4 27 65 32 57 5 64 7 65 28
1 13 -3 26 -9 29 -11 7 -68 10 -102 5z m-28 -135 c4 -4 8 -19 9 -33 1 -22 -3
-25 -30 -22 -23 2 -31 9 -33 27 -5 33 31 51 54 28z"/>
<path d="M2539 3488 c-1 -13 -1 -28 0 -34 1 -8 -18 -11 -55 -10 -31 0 -61 -2
-66 -5 -12 -8 -17 -52 -6 -59 4 -3 -24 -4 -62 -2 -74 4 -76 3 -71 -49 2 -13
-9 -16 -58 -17 -74 0 -82 -5 -72 -40 l8 -27 -68 3 c-64 3 -69 2 -70 -17 -1
-12 -2 -27 -3 -33 -1 -8 -17 -14 -41 -14 -97 -4 -91 -2 -89 -34 l2 -30 -64 0
c-44 0 -64 -4 -65 -12 -1 -7 -2 -17 -4 -23 -1 -5 -3 -15 -3 -22 -1 -7 -21 -12
-54 -12 -81 1 -78 2 -71 -31 l6 -30 -66 0 -66 0 -3 -32 -3 -33 -63 0 -62 0 0
-32 0 -33 -65 0 c-55 0 -65 -3 -66 -17 -1 -10 -2 -25 -3 -33 -1 -12 -15 -15
-64 -15 l-62 0 0 -32 0 -33 -64 0 -65 0 -3 -32 c-3 -35 -2 -35 -96 -37 -28 -1
-41 -5 -37 -12 4 -5 4 -20 1 -32 -5 -20 -10 -22 -70 -19 -64 4 -65 4 -68 34
l-3 30 -145 0 c-80 0 -151 -1 -157 -1 -8 -1 -13 -14 -13 -31 l0 -30 -65 0 -65
0 0 -35 c0 -32 -2 -35 -30 -35 -29 0 -34 -7 -31 -42 2 -14 -5 -18 -33 -18
l-36 0 0 -1040 0 -1040 35 0 c32 0 35 -2 35 -30 0 -17 5 -30 13 -31 6 0 35 -1
62 -2 42 -2 50 -5 51 -22 1 -11 2 -26 3 -32 1 -7 14 -13 31 -13 27 0 30 -3 30
-30 0 -33 -7 -31 115 -34 l80 -1 3 -32 c3 -32 2 -33 -32 -33 l-36 0 0 -65 0
-65 290 0 c225 0 290 3 291 13 1 6 0 22 -1 34 l-1 21 880 1 881 1 0 -35 0 -35
292 2 292 3 -1 50 c-1 28 -2 56 -2 63 -1 7 -14 12 -31 12 -27 0 -30 3 -30 33
l0 32 90 1 c50 0 93 4 96 7 4 3 7 18 7 32 0 22 4 25 33 25 32 0 34 2 34 35 0
23 5 35 13 34 6 -1 36 -1 65 0 51 1 52 2 52 31 0 27 3 30 30 30 34 0 31 -19
33 190 l2 135 57 1 c66 0 67 1 70 37 2 23 7 27 35 27 l33 0 0 194 0 195 -32 3
c-29 3 -33 7 -33 31 1 26 -1 27 -50 28 -27 1 -57 2 -65 3 -12 1 -15 21 -17 99
l-2 97 64 0 c58 0 65 2 66 20 1 11 2 26 3 33 0 6 16 13 34 15 l32 3 0 189 0
189 -32 3 c-18 2 -34 9 -34 16 -1 6 -2 21 -3 32 -1 18 -8 20 -65 20 l-63 0 -1
252 c0 139 -1 256 -1 261 -1 4 -14 7 -31 7 -27 0 -30 3 -30 30 0 27 -3 30 -29
30 -30 0 -45 21 -39 51 2 10 -15 15 -63 19 -61 5 -66 7 -64 28 1 13 -3 26 -8
29 -5 3 -64 6 -131 5 -203 -1 -186 2 -186 -32 0 -27 -3 -30 -29 -30 -26 0 -30
-4 -33 -32 l-3 -33 -1040 0 -1040 0 -3 33 -3 32 65 0 65 0 3 33 c3 32 3 32 63
35 62 3 76 12 68 43 -5 16 -15 19 -68 19 l-63 0 2 33 3 32 61 1 c38 1 63 -3
64 -10 0 -6 2 -15 3 -21 2 -5 3 -16 4 -22 1 -9 20 -13 61 -13 59 0 60 1 61 28
1 15 1 31 0 35 -1 4 26 7 59 6 33 -1 62 0 65 3 3 2 6 17 7 31 2 26 4 27 65 27
l62 0 3 33 c3 32 3 32 66 35 63 3 70 9 63 55 0 4 28 7 63 7 63 0 64 0 68 30 3
17 0 30 -6 31 -6 1 -36 2 -66 4 l-56 2 1 -31 0 -31 -65 0 -65 0 0 30 c0 30 1
30 57 31 64 1 73 5 73 37 0 20 6 22 67 25 l68 3 -4 -31 -3 -30 62 0 c65 0 76
7 67 42 -3 13 -18 18 -66 20 -61 3 -61 3 -61 33 0 30 0 30 63 31 34 1 63 -2
63 -7 1 -5 3 -13 4 -19 1 -5 3 -17 4 -25 1 -12 15 -15 61 -15 50 0 60 3 61 18
1 9 2 24 3 32 1 11 15 15 60 16 61 1 77 12 69 45 -5 16 -15 19 -69 19 -63 0
-64 0 -64 -27 -1 -27 -1 -27 -15 -9 -8 11 -15 17 -15 13 0 -5 -6 -2 -14 5 -12
11 -9 14 18 18 23 4 31 10 31 25 0 35 12 42 67 39 29 -1 56 -2 59 -3 3 -1 6
-13 5 -28 -1 -27 0 -28 62 -31 66 -3 68 -1 62 51 -1 15 5 18 32 17 89 -5 98
-2 98 31 l0 32 -76 -5 c-46 -3 -70 -2 -61 4 9 4 14 17 12 28 -2 10 2 23 8 28
10 7 86 10 119 3 4 0 6 -13 5 -28 -2 -27 -1 -28 59 -31 52 -2 62 0 66 15 10
38 -4 48 -67 48 -60 0 -60 0 -60 30 -1 30 -1 30 -63 33 -59 3 -62 2 -63 -20z
m-922 -571 c7 -4 11 -18 9 -30 -3 -20 -10 -22 -70 -25 l-67 -3 4 33 c3 18 6
33 6 33 30 3 109 -2 118 -8z m-122 -87 c0 -18 -6 -26 -22 -28 -16 -2 -21 1
-18 10 4 10 -4 15 -29 16 -24 2 -36 -2 -41 -15 -6 -16 -8 -15 -16 5 -14 36 -3
43 64 40 58 -3 62 -4 62 -28z"/>
</g>
</svg>
